<svg width="615.6px" height="122px" xmlns="http://www.w3.org/2000/svg" viewBox="-57.797515869140625 13.989306640625003 615.5950317382812 122.02138671875" style="background: rgba(0, 0, 0, 0)" preserveAspectRatio="xMidYMid"><defs><linearGradient id="editing-gradient-gradient" x1="0" x2="1" y1="0.5" y2="0.5" gradientUnits="objectBoundingBox"><stop offset="0" stop-color="#75a6ee"></stop><stop offset="1" stop-color="#d825a2"></stop></linearGradient></defs><g><g transform="matrix(1.4,0,0,1.2,-31.7,105.2)"><path d="M -0.3 -2.2 L -14.3 -2.2 L -6.1 -44.5 L 8 -44.5 L -0.3 -2.2 Z M 55.4 -0.9 L 55.4 -0.9 L 55.4 -0.9 Q 47.7 -0.9 47.7 -7 L 47.7 -7 L 47.7 -7 Q 47.7 -9.6 48.8 -14.7 L 48.8 -14.7 L 48.8 -14.7 Q 49.9 -19.8 50.3 -21.8 L 50.3 -21.8 L 50.3 -21.8 Q 51.2 -26.5 51.2 -27.9 L 51.2 -27.9 L 51.2 -27.9 Q 51.2 -31.2 48.8 -31.2 L 48.8 -31.2 L 48.8 -31.2 Q 47.2 -31.2 45.7 -29 L 45.7 -29 L 45.7 -29 Q 44.1 -26.8 43.4 -22.4 L 43.4 -22.4 L 39.4 -2.2 L 27 -0.9 L 30.4 -18.3 L 30.4 -18.3 Q 31 -21.2 31.5 -24.5 L 31.5 -24.5 L 31.5 -24.5 Q 32 -27.8 32 -28.3 L 32 -28.3 L 32 -28.3 Q 32 -31.2 29.8 -31.2 L 29.8 -31.2 L 29.8 -31.2 Q 28.4 -31.2 26.8 -29 L 26.8 -29 L 26.8 -29 Q 25.2 -26.9 24.3 -22.4 L 24.3 -22.4 L 20.4 -2.2 L 7.8 -0.9 L 14.5 -34.9 L 24.9 -36.1 L 23.8 -29.7 L 23.8 -29.7 Q 25.5 -33.1 28.6 -34.6 L 28.6 -34.6 L 28.6 -34.6 Q 31.6 -36.1 36.4 -36.1 L 36.4 -36.1 L 36.4 -36.1 Q 39.2 -36.1 41 -34.8 L 41 -34.8 L 41 -34.8 Q 42.8 -33.4 43.3 -31.3 L 43.3 -31.3 L 43.3 -31.3 Q 44.4 -33.5 47.2 -34.8 L 47.2 -34.8 L 47.2 -34.8 Q 50 -36.1 53.4 -36.1 L 53.4 -36.1 L 53.4 -36.1 Q 56.9 -36.1 58.5 -35.4 L 58.5 -35.4 L 58.5 -35.4 Q 60.2 -34.7 61.3 -33.4 L 61.3 -33.4 L 61.3 -33.4 Q 63 -31.2 63 -27.1 L 63 -27.1 L 63 -27.1 Q 63 -23.1 61.3 -14.7 L 61.3 -14.7 L 61.3 -14.7 Q 60.4 -10.6 60.4 -9.1 L 60.4 -9.1 L 60.4 -9.1 Q 60.4 -7.6 61.2 -6.7 L 61.2 -6.7 L 61.2 -6.7 Q 62.1 -5.8 63.4 -5.7 L 63.4 -5.7 L 63.4 -5.7 Q 62.7 -3.5 60.5 -2.2 L 60.5 -2.2 L 60.5 -2.2 Q 58.3 -0.9 55.4 -0.9 Z M 71.1 -4.1 L 71.1 -4.1 L 71.1 -4.1 Q 69.6 -5.8 68.9 -8.4 L 68.9 -8.4 L 68.9 -8.4 Q 68.2 -11 68.2 -15.3 L 68.2 -15.3 L 68.2 -15.3 Q 68.2 -19.6 69.7 -23.5 L 69.7 -23.5 L 69.7 -23.5 Q 71.2 -27.4 73.9 -30.2 L 73.9 -30.2 L 73.9 -30.2 Q 79.4 -36.1 88.5 -36.1 L 88.5 -36.1 L 88.5 -36.1 Q 91.7 -36.1 94.1 -35 L 94.1 -35 L 105 -36.1 L 100.3 -11.2 L 100.3 -11.2 Q 100.1 -10.4 100.1 -9 L 100.1 -9 L 100.1 -9 Q 100.1 -7.6 101 -6.7 L 101 -6.7 L 101 -6.7 Q 101.8 -5.8 103.1 -5.7 L 103.1 -5.7 L 103.1 -5.7 Q 102.5 -3.5 100.1 -2.2 L 100.1 -2.2 L 100.1 -2.2 Q 97.8 -0.9 95.2 -0.9 L 95.2 -0.9 L 95.2 -0.9 Q 92.6 -0.9 90.8 -1.9 L 90.8 -1.9 L 90.8 -1.9 Q 89 -2.9 88.5 -4.6 L 88.5 -4.6 L 88.5 -4.6 Q 87.5 -3 85.3 -2 L 85.3 -2 L 85.3 -2 Q 83.2 -0.9 80.2 -0.9 L 80.2 -0.9 L 80.2 -0.9 Q 77.3 -0.9 75 -1.7 L 75 -1.7 L 75 -1.7 Q 72.6 -2.5 71.1 -4.1 Z M 84.6 -30.1 L 84.6 -30.1 L 84.6 -30.1 Q 83.9 -29 83.2 -27 L 83.2 -27 L 83.2 -27 Q 82.6 -25.1 81.5 -19.8 L 81.5 -19.8 L 81.5 -19.8 Q 80.5 -14.6 80.5 -10.9 L 80.5 -10.9 L 80.5 -10.9 Q 80.5 -7.2 81 -6.1 L 81 -6.1 L 81 -6.1 Q 81.6 -5 82.6 -5 L 82.6 -5 L 82.6 -5 Q 84.7 -5 86.2 -7 L 86.2 -7 L 86.2 -7 Q 87.7 -8.9 88.3 -12.4 L 88.3 -12.4 L 91.7 -31.1 L 91.7 -31.1 Q 90.3 -32.3 88.8 -32.3 L 88.8 -32.3 L 88.8 -32.3 Q 87.2 -32.3 86.3 -31.8 L 86.3 -31.8 L 86.3 -31.8 Q 85.3 -31.3 84.6 -30.1 Z M 112.8 -29 L 112.8 -29 L 112.8 -29 Q 115 -32 118.3 -34.1 L 118.3 -34.1 L 118.3 -34.1 Q 121.6 -36.1 125.6 -36.1 L 125.6 -36.1 L 125.6 -36.1 Q 129.6 -36.1 131.5 -34.9 L 131.5 -34.9 L 144.1 -36.1 L 139.7 -11.6 L 139.7 -11.6 Q 137.5 1 132.8 5.9 L 132.8 5.9 L 132.8 5.9 Q 128.2 10.6 119.4 10.6 L 119.4 10.6 L 119.4 10.6 Q 112.7 10.6 108.8 8.5 L 108.8 8.5 L 108.8 8.5 Q 105 6.4 105 2.8 L 105 2.8 L 105 2.8 Q 105 0.2 107 -1.3 L 107 -1.3 L 107 -1.3 Q 108.9 -2.8 112 -2.8 L 112 -2.8 L 112 -2.8 Q 114.7 -2.8 116.8 -1.6 L 116.8 -1.6 L 116.8 -1.6 Q 118 -0.9 118.5 0 L 118.5 0 L 118.5 0 Q 117.1 1.2 117.1 3.4 L 117.1 3.4 L 117.1 3.4 Q 117.1 6.1 119.6 6.1 L 119.6 6.1 L 119.6 6.1 Q 123.9 6.1 126.4 -4 L 126.4 -4 L 126.4 -4 Q 127.1 -6.8 127.6 -9.5 L 127.6 -9.5 L 127.6 -9.5 Q 124.8 -6 118.2 -6 L 118.2 -6 L 118.2 -6 Q 113.7 -6 111.1 -8.2 L 111.1 -8.2 L 111.1 -8.2 Q 108.4 -10.3 108.4 -15.5 L 108.4 -15.5 L 108.4 -15.5 Q 108.4 -18.7 109.5 -22.3 L 109.5 -22.3 L 109.5 -22.3 Q 110.6 -25.9 112.8 -29 Z M 121.1 -15.3 L 121.1 -15.3 L 121.1 -15.3 Q 121.1 -10.9 123.3 -10.9 L 123.3 -10.9 L 123.3 -10.9 Q 124.9 -10.9 126.4 -12.6 L 126.4 -12.6 L 126.4 -12.6 Q 127.5 -13.9 128 -15.9 L 128 -15.9 L 131.2 -32.4 L 131.2 -32.4 Q 130.9 -32.4 130.6 -32.6 L 130.6 -32.6 L 130.6 -32.6 Q 129.9 -32.8 129.1 -32.8 L 129.1 -32.8 L 129.1 -32.8 Q 125.2 -32.8 122.9 -26.4 L 122.9 -26.4 L 122.9 -26.4 Q 121.1 -21.4 121.1 -15.3 Z M 172.5 -13 L 172.5 -13 L 172.5 -13 Q 174.1 -11.9 174.1 -9.5 L 174.1 -9.5 L 174.1 -9.5 Q 174.1 -7.1 172.9 -5.6 L 172.9 -5.6 L 172.9 -5.6 Q 171.7 -4.1 169.7 -3 L 169.7 -3 L 169.7 -3 Q 165.6 -0.9 161.2 -0.9 L 161.2 -0.9 L 161.2 -0.9 Q 156.8 -0.9 154.2 -1.9 L 154.2 -1.9 L 154.2 -1.9 Q 151.6 -2.9 149.8 -4.6 L 149.8 -4.6 L 149.8 -4.6 Q 146.5 -8 146.5 -14.2 L 146.5 -14.2 L 146.5 -14.2 Q 146.5 -23.9 151.7 -29.8 L 151.7 -29.8 L 151.7 -29.8 Q 157.3 -36.1 167.1 -36.1 L 167.1 -36.1 L 167.1 -36.1 Q 173.2 -36.1 176.2 -33.6 L 176.2 -33.6 L 176.2 -33.6 Q 178.5 -31.7 178.5 -28.5 L 178.5 -28.5 L 178.5 -28.5 Q 178.5 -17.3 159 -17.3 L 159 -17.3 L 159 -17.3 Q 158.7 -15.6 158.7 -14.2 L 158.7 -14.2 L 158.7 -14.2 Q 158.7 -11.2 160.1 -10.1 L 160.1 -10.1 L 160.1 -10.1 Q 161.4 -9 163.8 -9 L 163.8 -9 L 163.8 -9 Q 166.2 -9 168.8 -10.1 L 168.8 -10.1 L 168.8 -10.1 Q 171.4 -11.2 172.5 -13 Z M 159.4 -20 L 159.4 -20 L 159.4 -20 Q 164 -20 166.6 -22.8 L 166.6 -22.8 L 166.6 -22.8 Q 169.2 -25.5 169.2 -29.8 L 169.2 -29.8 L 169.2 -29.8 Q 169.2 -31.3 168.7 -32.1 L 168.7 -32.1 L 168.7 -32.1 Q 168.1 -32.9 167.1 -32.9 L 167.1 -32.9 L 167.1 -32.9 Q 166 -32.9 165 -32.5 L 165 -32.5 L 165 -32.5 Q 164.1 -32 163.2 -30.6 L 163.2 -30.6 L 163.2 -30.6 Q 160.8 -27.4 159.4 -20 Z M 219.7 -22.8 L 232.7 -24 L 232.7 -24 Q 228.1 -13.9 228.1 -2.2 L 228.1 -2.2 L 228.1 -2.2 Q 226.3 -0.9 223.8 -0.9 L 223.8 -0.9 L 223.8 -0.9 Q 221.3 -0.9 219.7 -2.1 L 219.7 -2.1 L 219.7 -2.1 Q 218.1 -3.3 217.7 -4.5 L 217.7 -4.5 L 217.7 -4.5 Q 216.1 -2.9 213.6 -1.9 L 213.6 -1.9 L 213.6 -1.9 Q 211 -0.9 208.2 -0.9 L 208.2 -0.9 L 208.2 -0.9 Q 205.5 -0.9 203.1 -1.8 L 203.1 -1.8 L 203.1 -1.8 Q 200.7 -2.7 198.8 -4.7 L 198.8 -4.7 L 198.8 -4.7 Q 194.7 -9.1 194.7 -17.3 L 194.7 -17.3 L 194.7 -17.3 Q 194.7 -30.1 201.6 -37.8 L 201.6 -37.8 L 201.6 -37.8 Q 208.6 -45.7 221.1 -45.7 L 221.1 -45.7 L 221.1 -45.7 Q 229.7 -45.7 232.8 -41.3 L 232.8 -41.3 L 232.8 -41.3 Q 233.7 -39.8 233.7 -38.2 L 233.7 -38.2 L 233.7 -38.2 Q 233.7 -36.5 233 -35 L 233 -35 L 233 -35 Q 232.3 -33.6 231.1 -32.4 L 231.1 -32.4 L 231.1 -32.4 Q 228.4 -29.9 225 -29.9 L 225 -29.9 L 225 -29.9 Q 223.6 -29.9 222.4 -30.3 L 222.4 -30.3 L 222.4 -30.3 Q 222.6 -32.2 222.6 -34.5 L 222.6 -34.5 L 222.6 -34.5 Q 222.6 -36.7 222.5 -37.7 L 222.5 -37.7 L 222.5 -37.7 Q 222.3 -38.8 221.9 -39.6 L 221.9 -39.6 L 221.9 -39.6 Q 221.1 -41.3 219.3 -41.3 L 219.3 -41.3 L 219.3 -41.3 Q 217.4 -41.3 215.4 -39.4 L 215.4 -39.4 L 215.4 -39.4 Q 213.4 -37.4 211.8 -34.2 L 211.8 -34.2 L 211.8 -34.2 Q 208.3 -27 208.3 -18.4 L 208.3 -18.4 L 208.3 -18.4 Q 208.3 -14.4 209.8 -11.6 L 209.8 -11.6 L 209.8 -11.6 Q 211.5 -8.6 214.4 -8.6 L 214.4 -8.6 L 214.4 -8.6 Q 215.4 -8.6 216.4 -9.1 L 216.4 -9.1 L 216.4 -9.1 Q 217.3 -9.6 217.7 -10 L 217.7 -10 L 219.7 -22.8 Z M 238.6 -4.1 L 238.6 -4.1 L 238.6 -4.1 Q 237.1 -5.8 236.4 -8.4 L 236.4 -8.4 L 236.4 -8.4 Q 235.7 -11 235.7 -15.3 L 235.7 -15.3 L 235.7 -15.3 Q 235.7 -19.6 237.2 -23.5 L 237.2 -23.5 L 237.2 -23.5 Q 238.7 -27.4 241.4 -30.2 L 241.4 -30.2 L 241.4 -30.2 Q 246.9 -36.1 256 -36.1 L 256 -36.1 L 256 -36.1 Q 259.2 -36.1 261.6 -35 L 261.6 -35 L 272.5 -36.1 L 267.8 -11.2 L 267.8 -11.2 Q 267.6 -10.4 267.6 -9 L 267.6 -9 L 267.6 -9 Q 267.6 -7.6 268.5 -6.7 L 268.5 -6.7 L 268.5 -6.7 Q 269.3 -5.8 270.6 -5.7 L 270.6 -5.7 L 270.6 -5.7 Q 270 -3.5 267.6 -2.2 L 267.6 -2.2 L 267.6 -2.2 Q 265.3 -0.9 262.7 -0.9 L 262.7 -0.9 L 262.7 -0.9 Q 260.1 -0.9 258.3 -1.9 L 258.3 -1.9 L 258.3 -1.9 Q 256.5 -2.9 256 -4.6 L 256 -4.6 L 256 -4.6 Q 255 -3 252.8 -2 L 252.8 -2 L 252.8 -2 Q 250.6 -0.9 247.7 -0.9 L 247.7 -0.9 L 247.7 -0.9 Q 244.8 -0.9 242.5 -1.7 L 242.5 -1.7 L 242.5 -1.7 Q 240.1 -2.5 238.6 -4.1 Z M 252.1 -30.1 L 252.1 -30.1 L 252.1 -30.1 Q 251.3 -29 250.7 -27 L 250.7 -27 L 250.7 -27 Q 250.1 -25.1 249 -19.8 L 249 -19.8 L 249 -19.8 Q 248 -14.6 248 -10.9 L 248 -10.9 L 248 -10.9 Q 248 -7.2 248.5 -6.1 L 248.5 -6.1 L 248.5 -6.1 Q 249.1 -5 250.1 -5 L 250.1 -5 L 250.1 -5 Q 252.2 -5 253.7 -7 L 253.7 -7 L 253.7 -7 Q 255.2 -8.9 255.8 -12.4 L 255.8 -12.4 L 259.2 -31.1 L 259.2 -31.1 Q 257.8 -32.3 256.2 -32.3 L 256.2 -32.3 L 256.2 -32.3 Q 254.7 -32.3 253.7 -31.8 L 253.7 -31.8 L 253.7 -31.8 Q 252.8 -31.3 252.1 -30.1 Z M 291.3 -5.7 L 291.3 -5.7 L 291.3 -5.7 Q 289.3 -0.9 283 -0.9 L 283 -0.9 L 283 -0.9 Q 279.8 -0.9 277.7 -3.2 L 277.7 -3.2 L 277.7 -3.2 Q 276.1 -5 276.1 -7.1 L 276.1 -7.1 L 276.1 -7.1 Q 276.1 -11.9 278.3 -22.4 L 278.3 -22.4 L 283 -47 L 296 -48.3 L 289.7 -15.9 L 289.7 -15.9 Q 288.7 -11.2 288.7 -9.5 L 288.7 -9.5 L 288.7 -9.5 Q 288.7 -5.9 291.3 -5.7 Z M 312 -5.7 L 312 -5.7 L 312 -5.7 Q 310 -0.9 303.7 -0.9 L 303.7 -0.9 L 303.7 -0.9 Q 300.5 -0.9 298.5 -3.2 L 298.5 -3.2 L 298.5 -3.2 Q 296.8 -5 296.8 -7.1 L 296.8 -7.1 L 296.8 -7.1 Q 296.8 -11.9 299 -22.4 L 299 -22.4 L 303.7 -47 L 316.7 -48.3 L 310.5 -15.9 L 310.5 -15.9 Q 309.4 -11.2 309.4 -9.5 L 309.4 -9.5 L 309.4 -9.5 Q 309.4 -5.9 312 -5.7 Z M 343.4 -13 L 343.4 -13 L 343.4 -13 Q 345 -11.9 345 -9.5 L 345 -9.5 L 345 -9.5 Q 345 -7.1 343.8 -5.6 L 343.8 -5.6 L 343.8 -5.6 Q 342.5 -4.1 340.6 -3 L 340.6 -3 L 340.6 -3 Q 336.5 -0.9 332.1 -0.9 L 332.1 -0.9 L 332.1 -0.9 Q 327.6 -0.9 325 -1.9 L 325 -1.9 L 325 -1.9 Q 322.5 -2.9 320.7 -4.6 L 320.7 -4.6 L 320.7 -4.6 Q 317.3 -8 317.3 -14.2 L 317.3 -14.2 L 317.3 -14.2 Q 317.3 -23.9 322.6 -29.8 L 322.6 -29.8 L 322.6 -29.8 Q 328.2 -36.1 338 -36.1 L 338 -36.1 L 338 -36.1 Q 344.1 -36.1 347.1 -33.6 L 347.1 -33.6 L 347.1 -33.6 Q 349.3 -31.7 349.3 -28.5 L 349.3 -28.5 L 349.3 -28.5 Q 349.3 -17.3 329.9 -17.3 L 329.9 -17.3 L 329.9 -17.3 Q 329.6 -15.6 329.6 -14.2 L 329.6 -14.2 L 329.6 -14.2 Q 329.6 -11.2 330.9 -10.1 L 330.9 -10.1 L 330.9 -10.1 Q 332.2 -9 334.7 -9 L 334.7 -9 L 334.7 -9 Q 337.1 -9 339.7 -10.1 L 339.7 -10.1 L 339.7 -10.1 Q 342.3 -11.2 343.4 -13 Z M 330.3 -20 L 330.3 -20 L 330.3 -20 Q 334.9 -20 337.5 -22.8 L 337.5 -22.8 L 337.5 -22.8 Q 340.1 -25.5 340.1 -29.8 L 340.1 -29.8 L 340.1 -29.8 Q 340.1 -31.3 339.6 -32.1 L 339.6 -32.1 L 339.6 -32.1 Q 339 -32.9 337.9 -32.9 L 337.9 -32.9 L 337.9 -32.9 Q 336.9 -32.9 335.9 -32.5 L 335.9 -32.5 L 335.9 -32.5 Q 335 -32 334 -30.6 L 334 -30.6 L 334 -30.6 Q 331.7 -27.4 330.3 -20 Z M 371.5 -20.2 L 371.5 -20.2 L 371.5 -20.2 Q 373.8 -24.3 373.8 -28.5 L 373.8 -28.5 L 373.8 -28.5 Q 373.8 -31.2 371.9 -31.2 L 371.9 -31.2 L 371.9 -31.2 Q 370.3 -31.2 368.7 -28.6 L 368.7 -28.6 L 368.7 -28.6 Q 367.1 -26 366.5 -22.6 L 366.5 -22.6 L 363.2 -2.2 L 350 -0.9 L 356.5 -34.9 L 367.1 -36.1 L 365.9 -29.7 L 365.9 -29.7 Q 369 -36.1 376.1 -36.1 L 376.1 -36.1 L 376.1 -36.1 Q 379.8 -36.1 381.8 -34.2 L 381.8 -34.2 L 381.8 -34.2 Q 383.8 -32.3 383.8 -28.4 L 383.8 -28.4 L 383.8 -28.4 Q 383.8 -24.4 381.2 -21.9 L 381.2 -21.9 L 381.2 -21.9 Q 378.6 -19.4 374.2 -19.4 L 374.2 -19.4 L 374.2 -19.4 Q 372.3 -19.4 371.5 -20.2 Z M 405.2 -9.4 L 405.2 -9.4 L 405.2 -9.4 Q 401.9 -6 395.8 -6 L 395.8 -6 L 395.8 -6 Q 388.2 -6 386.6 -11.6 L 386.6 -11.6 L 386.6 -11.6 Q 386.1 -13.2 386.1 -15.1 L 386.1 -15.1 L 386.1 -15.1 Q 386.1 -16.9 386.5 -18.9 L 386.5 -18.9 L 389.5 -34.9 L 402.5 -36.1 L 398.9 -17.5 L 398.9 -17.5 Q 398.8 -16.7 398.6 -15.8 L 398.6 -15.8 L 398.6 -15.8 Q 398.4 -14.9 398.4 -14 L 398.4 -14 L 398.4 -14 Q 398.4 -13 398.7 -12.4 L 398.7 -12.4 L 398.7 -12.4 Q 399.1 -11.8 399.5 -11.4 L 399.5 -11.4 L 399.5 -11.4 Q 400.3 -10.9 401.7 -10.9 L 401.7 -10.9 L 401.7 -10.9 Q 403 -10.9 404.2 -12.6 L 404.2 -12.6 L 404.2 -12.6 Q 405.4 -14.2 406 -17.1 L 406 -17.1 L 409.5 -34.9 L 422.1 -36.1 L 417.3 -11 L 417.3 -11 Q 414.9 1.3 410.1 6.2 L 410.1 6.2 L 410.1 6.2 Q 407.6 8.7 404.3 9.7 L 404.3 9.7 L 404.3 9.7 Q 401.1 10.6 396.9 10.6 L 396.9 10.6 L 396.9 10.6 Q 390.2 10.6 386.4 8.5 L 386.4 8.5 L 386.4 8.5 Q 382.5 6.4 382.5 2.9 L 382.5 2.9 L 382.5 2.9 Q 382.5 0.3 384.5 -1.2 L 384.5 -1.2 L 384.5 -1.2 Q 386.5 -2.7 389.6 -2.7 L 389.6 -2.7 L 389.6 -2.7 Q 392.3 -2.7 394.3 -1.6 L 394.3 -1.6 L 394.3 -1.6 Q 395.5 -0.9 396.1 0 L 396.1 0 L 396.1 0 Q 394.6 1.3 394.6 3.4 L 394.6 3.4 L 394.6 3.4 Q 394.6 6.2 397.2 6.2 L 397.2 6.2 L 397.2 6.2 Q 401.4 6.2 403.9 -3.5 L 403.9 -3.5 L 403.9 -3.5 Q 404.6 -6.4 405.2 -9.4 Z" fill="url(#editing-gradient-gradient)"></path></g></g><style>text {
  font-size: 64px;
  font-family: Arial Black;
  dominant-baseline: central;
  text-anchor: middle;
}</style></svg>